<svg xmlns="http://www.w3.org/2000/svg" width="1200" height="675" viewBox="0 0 1200 675" role="img" aria-label="实战场景与综合案例" font-family="Noto Sans SC, Source Han Sans SC, PingFang SC, system-ui, sans-serif">
  <defs>
    <filter id="soft-shadow" x="-8%" y="-12%" width="116%" height="128%">
      <feDropShadow dx="0" dy="5" stdDeviation="7" flood-color="#111827" flood-opacity="0.08"/>
    </filter>
    <pattern id="dot-grid" width="28" height="28" patternUnits="userSpaceOnUse">
      <circle cx="1.5" cy="1.5" r="1.2" fill="#e8e4da" opacity="0.85"/>
    </pattern>
    <marker id="arrow" markerWidth="12" markerHeight="12" refX="10" refY="6" orient="auto" markerUnits="strokeWidth">
      <path d="M2,2 L10,6 L2,10" fill="none" stroke="#1b365d" stroke-width="2" stroke-linecap="round" stroke-linejoin="round" />
    </marker>
  </defs>
  <rect width="1200" height="675" fill="#f5f4ed"/>
  <rect x="1" y="1" width="1198" height="673" rx="18" fill="#faf9f5" stroke="#d9d6cc" stroke-width="1.6"/>
  <rect x="1" y="1" width="1198" height="673" rx="18" fill="url(#dot-grid)" opacity="0.34"/>
  <rect x="72" y="206" width="1056" height="390" rx="16" fill="#f5f4ed" stroke="#d9d6cc" stroke-width="1.1" opacity="0.82"/>
  <text x="84" y="82" fill="#1b365d" font-size="12" font-weight="800" letter-spacing="1.2">第8章</text>
  <text x="1116" y="82" text-anchor="end" fill="#5f6673" font-size="11" font-weight="700" letter-spacing="1">教学图示</text>
  <rect x="84" y="100" width="54" height="4" rx="2" fill="#1b365d"/>
  <text x="84.0" y="136.0" text-anchor="start" fill="#111827" font-size="31" font-weight="800"><tspan x="84.0" dy="0">实战场景与综合案例</tspan></text>
  <text x="84.0" y="178.0" text-anchor="start" fill="#5f6673" font-size="15" font-weight="500"><tspan x="84.0" dy="0">从需求分析到最终发布的项目全生命周期。</tspan></text>
  <line x1="128.0" y1="410.0" x2="1072.0" y2="410.0" stroke="#1b365d" stroke-width="3" stroke-linecap="round"/>
  <circle cx="128.0" cy="410.0" r="10" fill="#1b365d"/>
  <line x1="128.0" y1="410.0" x2="128.0" y2="340.0" stroke="#d9d6cc" stroke-width="1" stroke-linecap="round"/>
  <rect x="40.0" y="252.0" width="176.0" height="88.0" rx="8" fill="#f7f5ee" stroke="#1b365d" stroke-width="1.4" filter="url(#soft-shadow)"/>
  <rect x="40.0" y="252.0" width="176.0" height="5" rx="2.5" fill="#1b365d"/>
  <circle cx="66.0" cy="280.0" r="15" fill="#1b365d"/>
  <text x="66.0" y="285.0" text-anchor="middle" fill="#ffffff" font-size="12" font-weight="800"><tspan x="66.0" dy="0">1</tspan></text>
  <text x="92.0" y="285.0" text-anchor="start" fill="#111827" font-size="17" font-weight="760"><tspan x="92.0" dy="0">明确需求</tspan></text>
  <circle cx="316.8" cy="410.0" r="10" fill="#1b365d"/>
  <line x1="316.8" y1="410.0" x2="316.8" y2="456.0" stroke="#d9d6cc" stroke-width="1" stroke-linecap="round"/>
  <rect x="228.8" y="456.0" width="176.0" height="88.0" rx="8" fill="#faf9f5" stroke="#d9d6cc" stroke-width="1.4" filter="url(#soft-shadow)"/>
  <circle cx="254.8" cy="484.0" r="15" fill="#1b365d"/>
  <text x="254.8" y="489.0" text-anchor="middle" fill="#ffffff" font-size="12" font-weight="800"><tspan x="254.8" dy="0">2</tspan></text>
  <text x="280.8" y="489.0" text-anchor="start" fill="#111827" font-size="17" font-weight="760"><tspan x="280.8" dy="0">设计图层结构</tspan></text>
  <circle cx="505.6" cy="410.0" r="10" fill="#1b365d"/>
  <line x1="505.6" y1="410.0" x2="505.6" y2="340.0" stroke="#d9d6cc" stroke-width="1" stroke-linecap="round"/>
  <rect x="417.6" y="252.0" width="176.0" height="88.0" rx="8" fill="#faf9f5" stroke="#d9d6cc" stroke-width="1.4" filter="url(#soft-shadow)"/>
  <circle cx="443.6" cy="280.0" r="15" fill="#1b365d"/>
  <text x="443.6" y="285.0" text-anchor="middle" fill="#ffffff" font-size="12" font-weight="800"><tspan x="443.6" dy="0">3</tspan></text>
  <text x="469.6" y="285.0" text-anchor="start" fill="#111827" font-size="17" font-weight="760"><tspan x="469.6" dy="0">收集数据</tspan></text>
  <circle cx="694.4" cy="410.0" r="10" fill="#1b365d"/>
  <line x1="694.4" y1="410.0" x2="694.4" y2="456.0" stroke="#d9d6cc" stroke-width="1" stroke-linecap="round"/>
  <rect x="606.4" y="456.0" width="176.0" height="88.0" rx="8" fill="#faf9f5" stroke="#d9d6cc" stroke-width="1.4" filter="url(#soft-shadow)"/>
  <circle cx="632.4" cy="484.0" r="15" fill="#1b365d"/>
  <text x="632.4" y="489.0" text-anchor="middle" fill="#ffffff" font-size="12" font-weight="800"><tspan x="632.4" dy="0">4</tspan></text>
  <text x="658.4" y="489.0" text-anchor="start" fill="#111827" font-size="17" font-weight="760"><tspan x="658.4" dy="0">导入与标注</tspan></text>
  <circle cx="883.2" cy="410.0" r="10" fill="#1b365d"/>
  <line x1="883.2" y1="410.0" x2="883.2" y2="340.0" stroke="#d9d6cc" stroke-width="1" stroke-linecap="round"/>
  <rect x="795.2" y="252.0" width="176.0" height="88.0" rx="8" fill="#faf9f5" stroke="#d9d6cc" stroke-width="1.4" filter="url(#soft-shadow)"/>
  <circle cx="821.2" cy="280.0" r="15" fill="#1b365d"/>
  <text x="821.2" y="285.0" text-anchor="middle" fill="#ffffff" font-size="12" font-weight="800"><tspan x="821.2" dy="0">5</tspan></text>
  <text x="847.2" y="285.0" text-anchor="start" fill="#111827" font-size="17" font-weight="760"><tspan x="847.2" dy="0">美化样式</tspan></text>
  <circle cx="1072.0" cy="410.0" r="10" fill="#1b365d"/>
  <line x1="1072.0" y1="410.0" x2="1072.0" y2="456.0" stroke="#d9d6cc" stroke-width="1" stroke-linecap="round"/>
  <rect x="984.0" y="456.0" width="176.0" height="88.0" rx="8" fill="#faf9f5" stroke="#d9d6cc" stroke-width="1.4" filter="url(#soft-shadow)"/>
  <circle cx="1010.0" cy="484.0" r="15" fill="#1b365d"/>
  <text x="1010.0" y="489.0" text-anchor="middle" fill="#ffffff" font-size="12" font-weight="800"><tspan x="1010.0" dy="0">6</tspan></text>
  <text x="1036.0" y="489.0" text-anchor="start" fill="#111827" font-size="17" font-weight="760"><tspan x="1036.0" dy="0">发布分享</tspan></text>
</svg>
