<svg xmlns="http://www.w3.org/2000/svg" width="1200" height="675" viewBox="0 0 1200 675" role="img" aria-label="ACP vs. MCP 架构层级对比图" font-family="Noto Sans SC, Source Han Sans SC, PingFang SC, system-ui, sans-serif">
  <defs>
    <filter id="soft-shadow" x="-8%" y="-12%" width="116%" height="128%">
      <feDropShadow dx="0" dy="5" stdDeviation="7" flood-color="#111827" flood-opacity="0.08"/>
    </filter>
    <pattern id="dot-grid" width="28" height="28" patternUnits="userSpaceOnUse">
      <circle cx="1.5" cy="1.5" r="1.2" fill="#e8e4da" opacity="0.85"/>
    </pattern>
    <marker id="arrow" markerWidth="12" markerHeight="12" refX="10" refY="6" orient="auto" markerUnits="strokeWidth">
      <path d="M2,2 L10,6 L2,10" fill="none" stroke="#1f4e79" stroke-width="2" stroke-linecap="round" stroke-linejoin="round" />
    </marker>
  </defs>
  <rect width="1200" height="675" fill="#f8f6f1"/>
  <rect x="1" y="1" width="1198" height="673" rx="18" fill="#ffffff" stroke="#d9d6cc" stroke-width="1.6"/>
  <rect x="1" y="1" width="1198" height="673" rx="18" fill="url(#dot-grid)" opacity="0.34"/>
  <rect x="72" y="206" width="1056" height="390" rx="16" fill="#f8f6f1" stroke="#d9d6cc" stroke-width="1.1" opacity="0.82"/>
  <text x="84" y="82" fill="#1f4e79" font-size="12" font-weight="800" letter-spacing="1.2">第1章</text>
  <text x="1116" y="82" text-anchor="end" fill="#5f6673" font-size="11" font-weight="700" letter-spacing="1">教学图示</text>
  <rect x="84" y="100" width="54" height="4" rx="2" fill="#1f4e79"/>
  <text x="84.0" y="136.0" text-anchor="start" fill="#111827" font-size="31" font-weight="800"><tspan x="84.0" dy="0">ACP vs. MCP 架构层级对比图</tspan></text>
  <text x="84.0" y="178.0" text-anchor="start" fill="#5f6673" font-size="15" font-weight="500"><tspan x="84.0" dy="0">ACP standardizes Client-to-Agent communication (Control &amp;</tspan><tspan x="84.0" dy="19">Dialog), while MCP standardizes Agent-to-Tool</tspan></text>
  <rect x="94" y="222" width="492" height="344" rx="12" fill="#faf9f5" stroke="#d9d6cc" stroke-width="1.6"/>
  <rect x="94" y="222" width="492" height="58" rx="12" fill="#1f4e79" opacity="0.96"/>
  <rect x="94" y="262" width="492" height="18" fill="#1f4e79" opacity="0.96"/>
  <text x="122.0" y="258.0" text-anchor="start" fill="#ffffff" font-size="21" font-weight="800"><tspan x="122.0" dy="0">ACP (Agent Client</tspan></text>
  <rect x="614" y="222" width="492" height="344" rx="12" fill="#faf9f5" stroke="#d9d6cc" stroke-width="1.6"/>
  <rect x="614" y="222" width="492" height="58" rx="12" fill="#4e791f" opacity="0.96"/>
  <rect x="614" y="262" width="492" height="18" fill="#4e791f" opacity="0.96"/>
  <text x="642.0" y="258.0" text-anchor="start" fill="#ffffff" font-size="21" font-weight="800"><tspan x="642.0" dy="0">MCP (Model Context</tspan></text>
</svg>
